<mxfile host="app.diagrams.net" modified="2024-06-03T17:23:12.470Z" agent="Mozilla/5.0 (Windows NT 10.0; Win64; x64) AppleWebKit/537.36 (KHTML, like Gecko) Chrome/125.0.0.0 Safari/537.36" etag="-2Bfsxm3sF9uF_u9VpHt" version="24.4.13" type="device">
  <diagram name="Page-1" id="fNrczj3u_ToqzbOkFQPV">
    <mxGraphModel dx="1750" dy="930" grid="1" gridSize="10" guides="1" tooltips="1" connect="1" arrows="1" fold="1" page="1" pageScale="1" pageWidth="1100" pageHeight="850" math="0" shadow="0">
      <root>
        <mxCell id="0" />
        <mxCell id="1" parent="0" />
        <mxCell id="J7ZmW4_zD0alz8BcwQ6z-29" style="edgeStyle=orthogonalEdgeStyle;rounded=0;orthogonalLoop=1;jettySize=auto;html=1;exitX=1;exitY=0.5;exitDx=0;exitDy=0;entryX=0;entryY=0.5;entryDx=0;entryDy=0;" edge="1" parent="1" source="J7ZmW4_zD0alz8BcwQ6z-1" target="J7ZmW4_zD0alz8BcwQ6z-2">
          <mxGeometry relative="1" as="geometry" />
        </mxCell>
        <mxCell id="J7ZmW4_zD0alz8BcwQ6z-1" value="&lt;font style=&quot;font-size: 16px;&quot;&gt;config&lt;/font&gt;" style="rounded=0;whiteSpace=wrap;html=1;fontSize=16;" vertex="1" parent="1">
          <mxGeometry x="5" y="170" width="120" height="60" as="geometry" />
        </mxCell>
        <mxCell id="J7ZmW4_zD0alz8BcwQ6z-30" style="edgeStyle=orthogonalEdgeStyle;rounded=0;orthogonalLoop=1;jettySize=auto;html=1;exitX=1;exitY=0.5;exitDx=0;exitDy=0;entryX=0;entryY=0.5;entryDx=0;entryDy=0;" edge="1" parent="1" source="J7ZmW4_zD0alz8BcwQ6z-2" target="J7ZmW4_zD0alz8BcwQ6z-3">
          <mxGeometry relative="1" as="geometry" />
        </mxCell>
        <mxCell id="J7ZmW4_zD0alz8BcwQ6z-2" value="&lt;font style=&quot;font-size: 16px;&quot;&gt;Controller&lt;/font&gt;" style="rounded=0;whiteSpace=wrap;html=1;fontSize=16;" vertex="1" parent="1">
          <mxGeometry x="144" y="170" width="120" height="60" as="geometry" />
        </mxCell>
        <mxCell id="J7ZmW4_zD0alz8BcwQ6z-31" style="edgeStyle=orthogonalEdgeStyle;rounded=0;orthogonalLoop=1;jettySize=auto;html=1;exitX=1;exitY=0.5;exitDx=0;exitDy=0;entryX=0;entryY=0.5;entryDx=0;entryDy=0;" edge="1" parent="1" source="J7ZmW4_zD0alz8BcwQ6z-3" target="J7ZmW4_zD0alz8BcwQ6z-4">
          <mxGeometry relative="1" as="geometry" />
        </mxCell>
        <mxCell id="J7ZmW4_zD0alz8BcwQ6z-3" value="DB" style="rounded=0;whiteSpace=wrap;html=1;fontSize=16;" vertex="1" parent="1">
          <mxGeometry x="282" y="170" width="120" height="60" as="geometry" />
        </mxCell>
        <mxCell id="J7ZmW4_zD0alz8BcwQ6z-32" style="edgeStyle=orthogonalEdgeStyle;rounded=0;orthogonalLoop=1;jettySize=auto;html=1;exitX=1;exitY=0.5;exitDx=0;exitDy=0;entryX=0;entryY=0.5;entryDx=0;entryDy=0;" edge="1" parent="1" source="J7ZmW4_zD0alz8BcwQ6z-4" target="J7ZmW4_zD0alz8BcwQ6z-5">
          <mxGeometry relative="1" as="geometry" />
        </mxCell>
        <mxCell id="J7ZmW4_zD0alz8BcwQ6z-4" value="middleware" style="rounded=0;whiteSpace=wrap;html=1;fontSize=16;" vertex="1" parent="1">
          <mxGeometry x="421" y="170" width="120" height="60" as="geometry" />
        </mxCell>
        <mxCell id="J7ZmW4_zD0alz8BcwQ6z-33" style="edgeStyle=orthogonalEdgeStyle;rounded=0;orthogonalLoop=1;jettySize=auto;html=1;exitX=1;exitY=0.5;exitDx=0;exitDy=0;entryX=0;entryY=0.5;entryDx=0;entryDy=0;" edge="1" parent="1" source="J7ZmW4_zD0alz8BcwQ6z-5" target="J7ZmW4_zD0alz8BcwQ6z-6">
          <mxGeometry relative="1" as="geometry" />
        </mxCell>
        <mxCell id="J7ZmW4_zD0alz8BcwQ6z-5" value="model" style="rounded=0;whiteSpace=wrap;html=1;fontSize=16;" vertex="1" parent="1">
          <mxGeometry x="559" y="170" width="120" height="60" as="geometry" />
        </mxCell>
        <mxCell id="J7ZmW4_zD0alz8BcwQ6z-34" style="edgeStyle=orthogonalEdgeStyle;rounded=0;orthogonalLoop=1;jettySize=auto;html=1;exitX=1;exitY=0.5;exitDx=0;exitDy=0;entryX=0;entryY=0.5;entryDx=0;entryDy=0;" edge="1" parent="1" source="J7ZmW4_zD0alz8BcwQ6z-6" target="J7ZmW4_zD0alz8BcwQ6z-7">
          <mxGeometry relative="1" as="geometry" />
        </mxCell>
        <mxCell id="J7ZmW4_zD0alz8BcwQ6z-6" value="routes" style="rounded=0;whiteSpace=wrap;html=1;fontSize=16;" vertex="1" parent="1">
          <mxGeometry x="698" y="170" width="120" height="60" as="geometry" />
        </mxCell>
        <mxCell id="J7ZmW4_zD0alz8BcwQ6z-35" style="edgeStyle=orthogonalEdgeStyle;rounded=0;orthogonalLoop=1;jettySize=auto;html=1;exitX=1;exitY=0.5;exitDx=0;exitDy=0;entryX=0;entryY=0.5;entryDx=0;entryDy=0;" edge="1" parent="1" source="J7ZmW4_zD0alz8BcwQ6z-7" target="J7ZmW4_zD0alz8BcwQ6z-8">
          <mxGeometry relative="1" as="geometry" />
        </mxCell>
        <mxCell id="J7ZmW4_zD0alz8BcwQ6z-7" value="app.js" style="rounded=0;whiteSpace=wrap;html=1;fontSize=16;" vertex="1" parent="1">
          <mxGeometry x="836" y="170" width="120" height="60" as="geometry" />
        </mxCell>
        <mxCell id="J7ZmW4_zD0alz8BcwQ6z-8" value="sever.js" style="rounded=0;whiteSpace=wrap;html=1;fontSize=16;" vertex="1" parent="1">
          <mxGeometry x="975" y="170" width="120" height="60" as="geometry" />
        </mxCell>
        <mxCell id="J7ZmW4_zD0alz8BcwQ6z-36" style="edgeStyle=orthogonalEdgeStyle;rounded=0;orthogonalLoop=1;jettySize=auto;html=1;exitX=1;exitY=0.5;exitDx=0;exitDy=0;entryX=0;entryY=0.5;entryDx=0;entryDy=0;" edge="1" parent="1" source="J7ZmW4_zD0alz8BcwQ6z-9" target="J7ZmW4_zD0alz8BcwQ6z-10">
          <mxGeometry relative="1" as="geometry" />
        </mxCell>
        <mxCell id="J7ZmW4_zD0alz8BcwQ6z-9" value="&lt;font style=&quot;font-size: 16px;&quot;&gt;About&lt;/font&gt;" style="rounded=0;whiteSpace=wrap;html=1;fontSize=16;" vertex="1" parent="1">
          <mxGeometry x="5" y="460" width="120" height="60" as="geometry" />
        </mxCell>
        <mxCell id="J7ZmW4_zD0alz8BcwQ6z-37" style="edgeStyle=orthogonalEdgeStyle;rounded=0;orthogonalLoop=1;jettySize=auto;html=1;exitX=1;exitY=0.5;exitDx=0;exitDy=0;entryX=0;entryY=0.5;entryDx=0;entryDy=0;" edge="1" parent="1" source="J7ZmW4_zD0alz8BcwQ6z-10" target="J7ZmW4_zD0alz8BcwQ6z-11">
          <mxGeometry relative="1" as="geometry" />
        </mxCell>
        <mxCell id="J7ZmW4_zD0alz8BcwQ6z-10" value="&lt;font style=&quot;font-size: 16px;&quot;&gt;Admin&lt;/font&gt;" style="rounded=0;whiteSpace=wrap;html=1;fontSize=16;" vertex="1" parent="1">
          <mxGeometry x="144" y="460" width="120" height="60" as="geometry" />
        </mxCell>
        <mxCell id="J7ZmW4_zD0alz8BcwQ6z-38" style="edgeStyle=orthogonalEdgeStyle;rounded=0;orthogonalLoop=1;jettySize=auto;html=1;exitX=1;exitY=0.5;exitDx=0;exitDy=0;entryX=0;entryY=0.5;entryDx=0;entryDy=0;" edge="1" parent="1" source="J7ZmW4_zD0alz8BcwQ6z-11" target="J7ZmW4_zD0alz8BcwQ6z-12">
          <mxGeometry relative="1" as="geometry" />
        </mxCell>
        <mxCell id="J7ZmW4_zD0alz8BcwQ6z-11" value="Cart" style="rounded=0;whiteSpace=wrap;html=1;fontSize=16;" vertex="1" parent="1">
          <mxGeometry x="282" y="460" width="120" height="60" as="geometry" />
        </mxCell>
        <mxCell id="J7ZmW4_zD0alz8BcwQ6z-39" style="edgeStyle=orthogonalEdgeStyle;rounded=0;orthogonalLoop=1;jettySize=auto;html=1;exitX=1;exitY=0.5;exitDx=0;exitDy=0;entryX=0;entryY=0.5;entryDx=0;entryDy=0;" edge="1" parent="1" source="J7ZmW4_zD0alz8BcwQ6z-12" target="J7ZmW4_zD0alz8BcwQ6z-13">
          <mxGeometry relative="1" as="geometry" />
        </mxCell>
        <mxCell id="J7ZmW4_zD0alz8BcwQ6z-12" value="Checkout" style="rounded=0;whiteSpace=wrap;html=1;fontSize=16;" vertex="1" parent="1">
          <mxGeometry x="421" y="460" width="120" height="60" as="geometry" />
        </mxCell>
        <mxCell id="J7ZmW4_zD0alz8BcwQ6z-40" style="edgeStyle=orthogonalEdgeStyle;rounded=0;orthogonalLoop=1;jettySize=auto;html=1;exitX=1;exitY=0.5;exitDx=0;exitDy=0;" edge="1" parent="1" source="J7ZmW4_zD0alz8BcwQ6z-13" target="J7ZmW4_zD0alz8BcwQ6z-14">
          <mxGeometry relative="1" as="geometry" />
        </mxCell>
        <mxCell id="J7ZmW4_zD0alz8BcwQ6z-13" value="Contact" style="rounded=0;whiteSpace=wrap;html=1;fontSize=16;" vertex="1" parent="1">
          <mxGeometry x="559" y="460" width="120" height="60" as="geometry" />
        </mxCell>
        <mxCell id="J7ZmW4_zD0alz8BcwQ6z-41" style="edgeStyle=orthogonalEdgeStyle;rounded=0;orthogonalLoop=1;jettySize=auto;html=1;exitX=1;exitY=0.5;exitDx=0;exitDy=0;entryX=0;entryY=0.5;entryDx=0;entryDy=0;" edge="1" parent="1" source="J7ZmW4_zD0alz8BcwQ6z-14" target="J7ZmW4_zD0alz8BcwQ6z-15">
          <mxGeometry relative="1" as="geometry" />
        </mxCell>
        <mxCell id="J7ZmW4_zD0alz8BcwQ6z-14" value="Events" style="rounded=0;whiteSpace=wrap;html=1;fontSize=16;" vertex="1" parent="1">
          <mxGeometry x="698" y="460" width="120" height="60" as="geometry" />
        </mxCell>
        <mxCell id="J7ZmW4_zD0alz8BcwQ6z-42" style="edgeStyle=orthogonalEdgeStyle;rounded=0;orthogonalLoop=1;jettySize=auto;html=1;exitX=1;exitY=0.5;exitDx=0;exitDy=0;entryX=0;entryY=0.5;entryDx=0;entryDy=0;" edge="1" parent="1" source="J7ZmW4_zD0alz8BcwQ6z-15" target="J7ZmW4_zD0alz8BcwQ6z-16">
          <mxGeometry relative="1" as="geometry" />
        </mxCell>
        <mxCell id="J7ZmW4_zD0alz8BcwQ6z-15" value="Header" style="rounded=0;whiteSpace=wrap;html=1;fontSize=16;" vertex="1" parent="1">
          <mxGeometry x="836" y="460" width="120" height="60" as="geometry" />
        </mxCell>
        <mxCell id="J7ZmW4_zD0alz8BcwQ6z-43" style="edgeStyle=orthogonalEdgeStyle;rounded=0;orthogonalLoop=1;jettySize=auto;html=1;exitX=0.5;exitY=1;exitDx=0;exitDy=0;entryX=0.5;entryY=0;entryDx=0;entryDy=0;" edge="1" parent="1" source="J7ZmW4_zD0alz8BcwQ6z-16" target="J7ZmW4_zD0alz8BcwQ6z-24">
          <mxGeometry relative="1" as="geometry" />
        </mxCell>
        <mxCell id="J7ZmW4_zD0alz8BcwQ6z-16" value="Navbar" style="rounded=0;whiteSpace=wrap;html=1;fontSize=16;" vertex="1" parent="1">
          <mxGeometry x="975" y="460" width="120" height="60" as="geometry" />
        </mxCell>
        <mxCell id="J7ZmW4_zD0alz8BcwQ6z-51" style="edgeStyle=orthogonalEdgeStyle;rounded=0;orthogonalLoop=1;jettySize=auto;html=1;exitX=0.5;exitY=1;exitDx=0;exitDy=0;entryX=0;entryY=0.5;entryDx=0;entryDy=0;" edge="1" parent="1" source="J7ZmW4_zD0alz8BcwQ6z-17" target="J7ZmW4_zD0alz8BcwQ6z-25">
          <mxGeometry relative="1" as="geometry" />
        </mxCell>
        <mxCell id="J7ZmW4_zD0alz8BcwQ6z-17" value="&lt;font style=&quot;font-size: 16px;&quot;&gt;Footer&lt;/font&gt;" style="rounded=0;whiteSpace=wrap;html=1;fontSize=16;" vertex="1" parent="1">
          <mxGeometry x="5" y="535" width="120" height="60" as="geometry" />
        </mxCell>
        <mxCell id="J7ZmW4_zD0alz8BcwQ6z-50" style="edgeStyle=orthogonalEdgeStyle;rounded=0;orthogonalLoop=1;jettySize=auto;html=1;exitX=0;exitY=0.5;exitDx=0;exitDy=0;entryX=1;entryY=0.5;entryDx=0;entryDy=0;" edge="1" parent="1" source="J7ZmW4_zD0alz8BcwQ6z-18" target="J7ZmW4_zD0alz8BcwQ6z-17">
          <mxGeometry relative="1" as="geometry" />
        </mxCell>
        <mxCell id="J7ZmW4_zD0alz8BcwQ6z-18" value="&lt;font style=&quot;font-size: 16px;&quot;&gt;Loader&lt;/font&gt;" style="rounded=0;whiteSpace=wrap;html=1;fontSize=16;" vertex="1" parent="1">
          <mxGeometry x="144" y="535" width="120" height="60" as="geometry" />
        </mxCell>
        <mxCell id="J7ZmW4_zD0alz8BcwQ6z-49" style="edgeStyle=orthogonalEdgeStyle;rounded=0;orthogonalLoop=1;jettySize=auto;html=1;exitX=0;exitY=0.5;exitDx=0;exitDy=0;" edge="1" parent="1" source="J7ZmW4_zD0alz8BcwQ6z-19" target="J7ZmW4_zD0alz8BcwQ6z-18">
          <mxGeometry relative="1" as="geometry" />
        </mxCell>
        <mxCell id="J7ZmW4_zD0alz8BcwQ6z-19" value="Login" style="rounded=0;whiteSpace=wrap;html=1;fontSize=16;" vertex="1" parent="1">
          <mxGeometry x="282" y="535" width="120" height="60" as="geometry" />
        </mxCell>
        <mxCell id="J7ZmW4_zD0alz8BcwQ6z-48" style="edgeStyle=orthogonalEdgeStyle;rounded=0;orthogonalLoop=1;jettySize=auto;html=1;exitX=0;exitY=0.5;exitDx=0;exitDy=0;" edge="1" parent="1" source="J7ZmW4_zD0alz8BcwQ6z-20" target="J7ZmW4_zD0alz8BcwQ6z-19">
          <mxGeometry relative="1" as="geometry" />
        </mxCell>
        <mxCell id="J7ZmW4_zD0alz8BcwQ6z-20" value="Payment&amp;nbsp;" style="rounded=0;whiteSpace=wrap;html=1;fontSize=16;" vertex="1" parent="1">
          <mxGeometry x="421" y="535" width="120" height="60" as="geometry" />
        </mxCell>
        <mxCell id="J7ZmW4_zD0alz8BcwQ6z-47" style="edgeStyle=orthogonalEdgeStyle;rounded=0;orthogonalLoop=1;jettySize=auto;html=1;exitX=0;exitY=0.5;exitDx=0;exitDy=0;entryX=1;entryY=0.5;entryDx=0;entryDy=0;" edge="1" parent="1" source="J7ZmW4_zD0alz8BcwQ6z-21" target="J7ZmW4_zD0alz8BcwQ6z-20">
          <mxGeometry relative="1" as="geometry" />
        </mxCell>
        <mxCell id="J7ZmW4_zD0alz8BcwQ6z-21" value="Product" style="rounded=0;whiteSpace=wrap;html=1;fontSize=16;" vertex="1" parent="1">
          <mxGeometry x="559" y="535" width="120" height="60" as="geometry" />
        </mxCell>
        <mxCell id="J7ZmW4_zD0alz8BcwQ6z-46" style="edgeStyle=orthogonalEdgeStyle;rounded=0;orthogonalLoop=1;jettySize=auto;html=1;exitX=0;exitY=0.5;exitDx=0;exitDy=0;entryX=1;entryY=0.5;entryDx=0;entryDy=0;" edge="1" parent="1" source="J7ZmW4_zD0alz8BcwQ6z-22" target="J7ZmW4_zD0alz8BcwQ6z-21">
          <mxGeometry relative="1" as="geometry" />
        </mxCell>
        <mxCell id="J7ZmW4_zD0alz8BcwQ6z-22" value="Profile" style="rounded=0;whiteSpace=wrap;html=1;fontSize=16;" vertex="1" parent="1">
          <mxGeometry x="698" y="535" width="120" height="60" as="geometry" />
        </mxCell>
        <mxCell id="J7ZmW4_zD0alz8BcwQ6z-45" style="edgeStyle=orthogonalEdgeStyle;rounded=0;orthogonalLoop=1;jettySize=auto;html=1;exitX=0;exitY=0.5;exitDx=0;exitDy=0;entryX=1;entryY=0.5;entryDx=0;entryDy=0;" edge="1" parent="1" source="J7ZmW4_zD0alz8BcwQ6z-23" target="J7ZmW4_zD0alz8BcwQ6z-22">
          <mxGeometry relative="1" as="geometry" />
        </mxCell>
        <mxCell id="J7ZmW4_zD0alz8BcwQ6z-23" value="Route" style="rounded=0;whiteSpace=wrap;html=1;fontSize=16;" vertex="1" parent="1">
          <mxGeometry x="836" y="535" width="120" height="60" as="geometry" />
        </mxCell>
        <mxCell id="J7ZmW4_zD0alz8BcwQ6z-44" style="edgeStyle=orthogonalEdgeStyle;rounded=0;orthogonalLoop=1;jettySize=auto;html=1;exitX=0;exitY=0.5;exitDx=0;exitDy=0;entryX=1;entryY=0.75;entryDx=0;entryDy=0;" edge="1" parent="1" source="J7ZmW4_zD0alz8BcwQ6z-24" target="J7ZmW4_zD0alz8BcwQ6z-23">
          <mxGeometry relative="1" as="geometry" />
        </mxCell>
        <mxCell id="J7ZmW4_zD0alz8BcwQ6z-24" value="Shop" style="rounded=0;whiteSpace=wrap;html=1;fontSize=16;" vertex="1" parent="1">
          <mxGeometry x="975" y="535" width="120" height="60" as="geometry" />
        </mxCell>
        <mxCell id="J7ZmW4_zD0alz8BcwQ6z-52" style="edgeStyle=orthogonalEdgeStyle;rounded=0;orthogonalLoop=1;jettySize=auto;html=1;exitX=1;exitY=0.5;exitDx=0;exitDy=0;entryX=0;entryY=0.5;entryDx=0;entryDy=0;" edge="1" parent="1" source="J7ZmW4_zD0alz8BcwQ6z-25" target="J7ZmW4_zD0alz8BcwQ6z-26">
          <mxGeometry relative="1" as="geometry" />
        </mxCell>
        <mxCell id="J7ZmW4_zD0alz8BcwQ6z-25" value="Sign UP" style="rounded=0;whiteSpace=wrap;html=1;fontSize=16;" vertex="1" parent="1">
          <mxGeometry x="330" y="615" width="120" height="60" as="geometry" />
        </mxCell>
        <mxCell id="J7ZmW4_zD0alz8BcwQ6z-53" style="edgeStyle=orthogonalEdgeStyle;rounded=0;orthogonalLoop=1;jettySize=auto;html=1;exitX=1;exitY=0.5;exitDx=0;exitDy=0;entryX=0;entryY=0.5;entryDx=0;entryDy=0;" edge="1" parent="1" source="J7ZmW4_zD0alz8BcwQ6z-26" target="J7ZmW4_zD0alz8BcwQ6z-27">
          <mxGeometry relative="1" as="geometry" />
        </mxCell>
        <mxCell id="J7ZmW4_zD0alz8BcwQ6z-26" value="Team" style="rounded=0;whiteSpace=wrap;html=1;fontSize=16;" vertex="1" parent="1">
          <mxGeometry x="468" y="615" width="120" height="60" as="geometry" />
        </mxCell>
        <mxCell id="J7ZmW4_zD0alz8BcwQ6z-27" value="Wishlist" style="rounded=0;whiteSpace=wrap;html=1;fontSize=16;" vertex="1" parent="1">
          <mxGeometry x="607" y="615" width="120" height="60" as="geometry" />
        </mxCell>
        <mxCell id="J7ZmW4_zD0alz8BcwQ6z-56" value="" style="rounded=0;whiteSpace=wrap;html=1;dashed=1;" vertex="1" parent="1">
          <mxGeometry x="430" y="280" width="260" height="140" as="geometry" />
        </mxCell>
        <mxCell id="J7ZmW4_zD0alz8BcwQ6z-54" value="&lt;font style=&quot;font-size: 16px;&quot;&gt;Frontend Components&lt;/font&gt;" style="ellipse;whiteSpace=wrap;html=1;" vertex="1" parent="1">
          <mxGeometry x="144" y="310" width="240" height="80" as="geometry" />
        </mxCell>
        <mxCell id="J7ZmW4_zD0alz8BcwQ6z-55" value="&lt;font style=&quot;font-size: 16px;&quot;&gt;Backend Components&lt;/font&gt;" style="ellipse;whiteSpace=wrap;html=1;" vertex="1" parent="1">
          <mxGeometry x="716" y="310" width="240" height="80" as="geometry" />
        </mxCell>
        <mxCell id="J7ZmW4_zD0alz8BcwQ6z-58" value="Frontend Components" style="text;html=1;align=center;verticalAlign=middle;whiteSpace=wrap;rounded=0;" vertex="1" parent="1">
          <mxGeometry x="480" y="290" width="160" height="30" as="geometry" />
        </mxCell>
        <mxCell id="J7ZmW4_zD0alz8BcwQ6z-64" style="edgeStyle=orthogonalEdgeStyle;rounded=0;orthogonalLoop=1;jettySize=auto;html=1;exitX=1;exitY=0.5;exitDx=0;exitDy=0;entryX=0;entryY=0.5;entryDx=0;entryDy=0;" edge="1" parent="1" source="J7ZmW4_zD0alz8BcwQ6z-59" target="J7ZmW4_zD0alz8BcwQ6z-55">
          <mxGeometry relative="1" as="geometry" />
        </mxCell>
        <mxCell id="J7ZmW4_zD0alz8BcwQ6z-59" value="&lt;font style=&quot;font-size: 18px;&quot;&gt;Redux Store&lt;/font&gt;" style="rounded=0;whiteSpace=wrap;html=1;" vertex="1" parent="1">
          <mxGeometry x="460" y="330" width="200" height="80" as="geometry" />
        </mxCell>
        <mxCell id="J7ZmW4_zD0alz8BcwQ6z-63" style="edgeStyle=orthogonalEdgeStyle;rounded=0;orthogonalLoop=1;jettySize=auto;html=1;exitX=1;exitY=0.5;exitDx=0;exitDy=0;entryX=0;entryY=0.5;entryDx=0;entryDy=0;" edge="1" parent="1" source="J7ZmW4_zD0alz8BcwQ6z-54" target="J7ZmW4_zD0alz8BcwQ6z-59">
          <mxGeometry relative="1" as="geometry" />
        </mxCell>
      </root>
    </mxGraphModel>
  </diagram>
</mxfile>
